<svg width="100" height="100" viewBox="0 0 100 100" fill="none" xmlns="http://www.w3.org/2000/svg">
<path d="M50 6.25L12.5 18.75V56.25C12.5 76.9629 29.2871 93.75 50 93.75C70.7129 93.75 87.5 76.9629 87.5 56.25V18.75L50 6.25ZM80.4688 56.25C80.4688 73.0762 66.8262 86.7188 50 86.7188C33.1738 86.7188 19.5312 73.0762 19.5312 56.25V24.0234L50 13.2812L80.4688 24.0234V56.25Z" fill="#F5F2EB"/>
<path d="M36.9532 46.3965C36.6273 46.0692 36.2401 45.8094 35.8135 45.6322C35.387 45.4549 34.9297 45.3637 34.4678 45.3637C34.006 45.3637 33.5487 45.4549 33.1221 45.6322C32.6956 45.8094 32.3083 46.0692 31.9825 46.3965C31.6552 46.7223 31.3954 47.1096 31.2182 47.5361C31.0409 47.9626 30.9497 48.42 30.9497 48.8818C30.9497 49.3437 31.0409 49.801 31.2182 50.2275C31.3954 50.654 31.6552 51.0413 31.9825 51.3672L44.6192 64.0039L44.8243 64.209C45.1325 64.5178 45.4986 64.7628 45.9016 64.9299C46.3046 65.0971 46.7366 65.1831 47.1729 65.1831C47.6092 65.1831 48.0412 65.0971 48.4442 64.9299C48.8472 64.7628 49.2133 64.5178 49.5216 64.209L71.3477 42.3828C71.6565 42.0746 71.9015 41.7085 72.0687 41.3055C72.2358 40.9025 72.3219 40.4705 72.3219 40.0342C72.3219 39.5979 72.2358 39.1659 72.0687 38.7629C71.9015 38.3599 71.6565 37.9938 71.3477 37.6855L71.0743 37.4121C70.7661 37.1033 70.4 36.8583 69.997 36.6912C69.594 36.524 69.162 36.438 68.7257 36.438C68.2894 36.438 67.8573 36.524 67.4543 36.6912C67.0513 36.8583 66.6852 37.1033 66.377 37.4121L47.168 56.6113L36.9532 46.3965Z" fill="#F5F2EB"/>
</svg>
