<svg width="100" height="100" viewBox="0 0 100 100" fill="none" xmlns="http://www.w3.org/2000/svg">
<path d="M58.1391 6.32041L51.0877 43.3689L76.633 43.4549L41.8611 93.6798L48.9127 52.9204L23.3689 52.8313L58.1391 6.32041ZM58.1439 0.0705078C57.9752 0.0705078 57.8065 0.0766602 57.6409 0.0890625C56.5378 0.178223 55.8064 0.546973 54.9393 1.12979C54.4511 1.45531 54.0109 1.84767 53.6315 2.29541C53.5176 2.42982 53.4102 2.56956 53.3096 2.71416L18.2892 49.0626C16.9064 50.9579 16.7033 53.4596 17.7658 55.5502C18.8267 57.6408 20.9721 58.9658 23.3236 58.983L41.3642 59.1143L35.6924 92.5314C35.1533 95.4033 36.6846 98.2658 39.3799 99.4189C40.1632 99.7556 41.0069 99.9289 41.8595 99.9283C43.8235 99.9283 45.4376 99.0096 46.6486 97.3502L81.7127 47.1251C83.0955 45.2297 83.2971 42.725 82.2361 40.6375C81.1752 38.5469 79.0299 37.2218 76.6783 37.2047L58.6377 37.1734L64.2486 7.79062C64.3675 7.30957 64.4273 6.81583 64.4268 6.32031C64.4268 2.93906 61.7346 0.182812 58.3658 0.0734375C58.2909 0.0703125 58.2174 0.0703125 58.144 0.0703125L58.1439 0.0705078Z" fill="#F5F2EB"/>
</svg>
