<svg width="100" height="100" viewBox="0 0 100 100" fill="none" xmlns="http://www.w3.org/2000/svg">
<path d="M50.0002 66.6666C66.1085 66.6666 79.1668 53.6082 79.1668 37.4999C79.1668 21.3916 66.1085 8.33325 50.0002 8.33325C33.8919 8.33325 20.8335 21.3916 20.8335 37.4999C20.8335 53.6082 33.8919 66.6666 50.0002 66.6666Z" stroke="#F5F2EB" stroke-width="5"/>
<path d="M30.6295 62.5L27.9754 72.1792C25.3587 81.7292 24.0504 86.5042 25.7962 89.1167C26.4087 90.0333 27.2295 90.7667 28.1837 91.2542C30.9004 92.6375 35.1004 90.45 43.4962 86.075C46.2879 84.6167 47.6879 83.8917 49.1712 83.7333C49.7226 83.6782 50.2781 83.6782 50.8295 83.7333C52.3129 83.8917 53.7087 84.6208 56.5045 86.075C64.9004 90.45 69.1004 92.6375 71.817 91.2542C72.7712 90.7667 73.592 90.0333 74.2045 89.1167C75.9545 86.5042 74.642 81.7292 72.0254 72.1792L69.3712 62.5" stroke="#F5F2EB" stroke-width="5" stroke-linecap="round"/>
</svg>
